<?xml version="1.0" encoding="iso-8859-1"?>
<!-- Generator: Adobe Illustrator 18.0.0, SVG Export Plug-In . SVG Version: 6.00 Build 0)  -->
<!DOCTYPE svg PUBLIC "-//W3C//DTD SVG 1.1//EN" "http://www.w3.org/Graphics/SVG/1.1/DTD/svg11.dtd">
<svg version="1.1" id="Capa_1" xmlns="http://www.w3.org/2000/svg" xmlns:xlink="http://www.w3.org/1999/xlink" x="0px" y="0px"
	width="16" height="16" viewBox="0 0 59.018 59.018" style="enable-background:new 0 0 59.018 59.018;" xml:space="preserve">
<g>
	<path fill="#fff" d="M58.741,52.809l-5.97-6.244c1.746-1.919,2.82-4.458,2.82-7.251c0-5.953-4.843-10.796-10.796-10.796S34,33.362,34,39.314
		S38.843,50.11,44.796,50.11c2.442,0,4.689-0.824,6.499-2.196l6.001,6.276c0.196,0.206,0.459,0.309,0.723,0.309
		c0.249,0,0.497-0.092,0.691-0.277C59.108,53.841,59.123,53.208,58.741,52.809z M36,39.314c0-4.85,3.946-8.796,8.796-8.796
		s8.796,3.946,8.796,8.796s-3.946,8.796-8.796,8.796S36,44.164,36,39.314z"/>
	<path fill="#fff" d="M0,5.75v37.962c5.233-4.049,16.986-13.204,22.449-17.944L0,5.75z"/>
	<path fill="#fff" d="M58,5.75L35.587,25.735l2.159,1.742c2.066-1.235,4.472-1.959,7.049-1.959c6.222,0,11.49,4.142,13.204,9.812V5.75z"/>
	<path fill="#fff" d="M31.299,26.879L56.376,4.518H1.624l25.076,22.36C27.968,28.012,30.031,28.011,31.299,26.879z"/>
	<path fill="#fff" d="M36.034,28.666l-1.96-1.581l-1.444,1.287c-1,0.893-2.315,1.34-3.63,1.34s-2.63-0.447-3.631-1.34l-1.415-1.261
		C18.434,31.924,6.104,41.52,0.947,45.508C0.966,45.509,0.981,45.518,1,45.518h31.491C31.545,43.651,31,41.547,31,39.314
		C31,35.031,32.962,31.198,36.034,28.666z"/>
</g>
<g>
</g>
<g>
</g>
<g>
</g>
<g>
</g>
<g>
</g>
<g>
</g>
<g>
</g>
<g>
</g>
<g>
</g>
<g>
</g>
<g>
</g>
<g>
</g>
<g>
</g>
<g>
</g>
<g>
</g>
</svg>
